<mxfile host="app.diagrams.net" agent="Mozilla/5.0 (Windows NT 10.0; Win64; x64) AppleWebKit/537.36 (KHTML, like Gecko) Chrome/136.0.0.0 Safari/537.36" version="26.2.14" pages="4">
  <diagram name="Diagrama de clases - GestiÃ³n de pedidos" id="1f4t0LTQFSCzsyt5-mIG">
    <mxGraphModel grid="0" page="0" gridSize="10" guides="1" tooltips="1" connect="1" arrows="1" fold="1" pageScale="1" pageWidth="827" pageHeight="1169" math="0" shadow="0">
      <root>
        <mxCell id="0" />
        <mxCell id="1" parent="0" />
        <mxCell id="2" value="Usuario" style="swimlane;fontStyle=1;align=center;verticalAlign=top;childLayout=stackLayout;horizontal=1;startSize=33.142857142857146;horizontalStack=0;resizeParent=1;resizeParentMax=0;resizeLast=0;collapsible=0;marginBottom=0;" vertex="1" parent="1">
          <mxGeometry x="8" y="8" width="218" height="206.14285714285714" as="geometry" />
        </mxCell>
        <mxCell id="3" value="+idUsuario: int" style="text;strokeColor=none;fillColor=none;align=left;verticalAlign=top;spacingLeft=4;spacingRight=4;overflow=hidden;rotatable=0;points=[[0,0.5],[1,0.5]];portConstraint=eastwest;" vertex="1" parent="2">
          <mxGeometry y="33.142857142857146" width="218" height="33" as="geometry" />
        </mxCell>
        <mxCell id="4" value="+nombre: string" style="text;strokeColor=none;fillColor=none;align=left;verticalAlign=top;spacingLeft=4;spacingRight=4;overflow=hidden;rotatable=0;points=[[0,0.5],[1,0.5]];portConstraint=eastwest;" vertex="1" parent="2">
          <mxGeometry y="66.14285714285714" width="218" height="33" as="geometry" />
        </mxCell>
        <mxCell id="5" value="+email: string" style="text;strokeColor=none;fillColor=none;align=left;verticalAlign=top;spacingLeft=4;spacingRight=4;overflow=hidden;rotatable=0;points=[[0,0.5],[1,0.5]];portConstraint=eastwest;" vertex="1" parent="2">
          <mxGeometry y="99.14285714285714" width="218" height="33" as="geometry" />
        </mxCell>
        <mxCell id="6" style="line;strokeWidth=1;fillColor=none;align=left;verticalAlign=middle;spacingTop=-1;spacingLeft=3;spacingRight=3;rotatable=0;labelPosition=right;points=[];portConstraint=eastwest;strokeColor=inherit;" vertex="1" parent="2">
          <mxGeometry y="132.14285714285714" width="218" height="8" as="geometry" />
        </mxCell>
        <mxCell id="7" value="+ autenticar()" style="text;strokeColor=none;fillColor=none;align=left;verticalAlign=top;spacingLeft=4;spacingRight=4;overflow=hidden;rotatable=0;points=[[0,0.5],[1,0.5]];portConstraint=eastwest;" vertex="1" parent="2">
          <mxGeometry y="140.14285714285714" width="218" height="33" as="geometry" />
        </mxCell>
        <mxCell id="8" value="+ crearPedido()" style="text;strokeColor=none;fillColor=none;align=left;verticalAlign=top;spacingLeft=4;spacingRight=4;overflow=hidden;rotatable=0;points=[[0,0.5],[1,0.5]];portConstraint=eastwest;" vertex="1" parent="2">
          <mxGeometry y="173.14285714285714" width="218" height="33" as="geometry" />
        </mxCell>
        <mxCell id="10" value="SistemaAutenticacion" style="swimlane;fontStyle=1;align=center;verticalAlign=top;childLayout=stackLayout;horizontal=1;startSize=36.8;horizontalStack=0;resizeParent=1;resizeParentMax=0;resizeLast=0;collapsible=0;marginBottom=0;" vertex="1" parent="1">
          <mxGeometry x="155" y="420" width="336" height="155.8" as="geometry" />
        </mxCell>
        <mxCell id="11" value="+idSistema: int" style="text;strokeColor=none;fillColor=none;align=left;verticalAlign=top;spacingLeft=4;spacingRight=4;overflow=hidden;rotatable=0;points=[[0,0.5],[1,0.5]];portConstraint=eastwest;" vertex="1" parent="10">
          <mxGeometry y="36.8" width="336" height="37" as="geometry" />
        </mxCell>
        <mxCell id="12" value="+tipo: string" style="text;strokeColor=none;fillColor=none;align=left;verticalAlign=top;spacingLeft=4;spacingRight=4;overflow=hidden;rotatable=0;points=[[0,0.5],[1,0.5]];portConstraint=eastwest;" vertex="1" parent="10">
          <mxGeometry y="73.8" width="336" height="37" as="geometry" />
        </mxCell>
        <mxCell id="13" style="line;strokeWidth=1;fillColor=none;align=left;verticalAlign=middle;spacingTop=-1;spacingLeft=3;spacingRight=3;rotatable=0;labelPosition=right;points=[];portConstraint=eastwest;strokeColor=inherit;" vertex="1" parent="10">
          <mxGeometry y="110.8" width="336" height="8" as="geometry" />
        </mxCell>
        <mxCell id="14" value="+ validarCredenciales()" style="text;strokeColor=none;fillColor=none;align=left;verticalAlign=top;spacingLeft=4;spacingRight=4;overflow=hidden;rotatable=0;points=[[0,0.5],[1,0.5]];portConstraint=eastwest;" vertex="1" parent="10">
          <mxGeometry y="118.8" width="336" height="37" as="geometry" />
        </mxCell>
        <mxCell id="16" value="Pedido" style="swimlane;fontStyle=1;align=center;verticalAlign=top;childLayout=stackLayout;horizontal=1;startSize=33.142857142857146;horizontalStack=0;resizeParent=1;resizeParentMax=0;resizeLast=0;collapsible=0;marginBottom=0;" vertex="1" parent="1">
          <mxGeometry x="-289" y="420" width="381" height="206.14285714285714" as="geometry" />
        </mxCell>
        <mxCell id="17" value="+idPedido: int" style="text;strokeColor=none;fillColor=none;align=left;verticalAlign=top;spacingLeft=4;spacingRight=4;overflow=hidden;rotatable=0;points=[[0,0.5],[1,0.5]];portConstraint=eastwest;" vertex="1" parent="16">
          <mxGeometry y="33.142857142857146" width="381" height="33" as="geometry" />
        </mxCell>
        <mxCell id="18" value="+fecha: date" style="text;strokeColor=none;fillColor=none;align=left;verticalAlign=top;spacingLeft=4;spacingRight=4;overflow=hidden;rotatable=0;points=[[0,0.5],[1,0.5]];portConstraint=eastwest;" vertex="1" parent="16">
          <mxGeometry y="66.14285714285714" width="381" height="33" as="geometry" />
        </mxCell>
        <mxCell id="19" value="+total: float" style="text;strokeColor=none;fillColor=none;align=left;verticalAlign=top;spacingLeft=4;spacingRight=4;overflow=hidden;rotatable=0;points=[[0,0.5],[1,0.5]];portConstraint=eastwest;" vertex="1" parent="16">
          <mxGeometry y="99.14285714285714" width="381" height="33" as="geometry" />
        </mxCell>
        <mxCell id="20" style="line;strokeWidth=1;fillColor=none;align=left;verticalAlign=middle;spacingTop=-1;spacingLeft=3;spacingRight=3;rotatable=0;labelPosition=right;points=[];portConstraint=eastwest;strokeColor=inherit;" vertex="1" parent="16">
          <mxGeometry y="132.14285714285714" width="381" height="8" as="geometry" />
        </mxCell>
        <mxCell id="21" value="+ calculartotal()" style="text;strokeColor=none;fillColor=none;align=left;verticalAlign=top;spacingLeft=4;spacingRight=4;overflow=hidden;rotatable=0;points=[[0,0.5],[1,0.5]];portConstraint=eastwest;" vertex="1" parent="16">
          <mxGeometry y="140.14285714285714" width="381" height="33" as="geometry" />
        </mxCell>
        <mxCell id="22" value="+ agregarProducto()" style="text;strokeColor=none;fillColor=none;align=left;verticalAlign=top;spacingLeft=4;spacingRight=4;overflow=hidden;rotatable=0;points=[[0,0.5],[1,0.5]];portConstraint=eastwest;" vertex="1" parent="16">
          <mxGeometry y="173.14285714285714" width="381" height="33" as="geometry" />
        </mxCell>
        <mxCell id="24" value="Producto" style="swimlane;fontStyle=1;align=center;verticalAlign=top;childLayout=stackLayout;horizontal=1;startSize=34.666666666666664;horizontalStack=0;resizeParent=1;resizeParentMax=0;resizeLast=0;collapsible=0;marginBottom=0;" vertex="1" parent="1">
          <mxGeometry x="-354" y="812" width="381" height="182.66666666666666" as="geometry" />
        </mxCell>
        <mxCell id="25" value="+idProducto: int" style="text;strokeColor=none;fillColor=none;align=left;verticalAlign=top;spacingLeft=4;spacingRight=4;overflow=hidden;rotatable=0;points=[[0,0.5],[1,0.5]];portConstraint=eastwest;" vertex="1" parent="24">
          <mxGeometry y="34.666666666666664" width="381" height="35" as="geometry" />
        </mxCell>
        <mxCell id="26" value="+nombre: string" style="text;strokeColor=none;fillColor=none;align=left;verticalAlign=top;spacingLeft=4;spacingRight=4;overflow=hidden;rotatable=0;points=[[0,0.5],[1,0.5]];portConstraint=eastwest;" vertex="1" parent="24">
          <mxGeometry y="69.66666666666666" width="381" height="35" as="geometry" />
        </mxCell>
        <mxCell id="27" value="+precio: float" style="text;strokeColor=none;fillColor=none;align=left;verticalAlign=top;spacingLeft=4;spacingRight=4;overflow=hidden;rotatable=0;points=[[0,0.5],[1,0.5]];portConstraint=eastwest;" vertex="1" parent="24">
          <mxGeometry y="104.66666666666666" width="381" height="35" as="geometry" />
        </mxCell>
        <mxCell id="28" style="line;strokeWidth=1;fillColor=none;align=left;verticalAlign=middle;spacingTop=-1;spacingLeft=3;spacingRight=3;rotatable=0;labelPosition=right;points=[];portConstraint=eastwest;strokeColor=inherit;" vertex="1" parent="24">
          <mxGeometry y="139.66666666666666" width="381" height="8" as="geometry" />
        </mxCell>
        <mxCell id="29" value="+ obtener precio()" style="text;strokeColor=none;fillColor=none;align=left;verticalAlign=top;spacingLeft=4;spacingRight=4;overflow=hidden;rotatable=0;points=[[0,0.5],[1,0.5]];portConstraint=eastwest;" vertex="1" parent="24">
          <mxGeometry y="147.66666666666666" width="381" height="35" as="geometry" />
        </mxCell>
        <mxCell id="31" value="Notificacion" style="swimlane;fontStyle=1;align=center;verticalAlign=top;childLayout=stackLayout;horizontal=1;startSize=34.666666666666664;horizontalStack=0;resizeParent=1;resizeParentMax=0;resizeLast=0;collapsible=0;marginBottom=0;" vertex="1" parent="1">
          <mxGeometry x="72" y="812" width="276" height="182.66666666666666" as="geometry" />
        </mxCell>
        <mxCell id="32" value="+idNotificacion: int" style="text;strokeColor=none;fillColor=none;align=left;verticalAlign=top;spacingLeft=4;spacingRight=4;overflow=hidden;rotatable=0;points=[[0,0.5],[1,0.5]];portConstraint=eastwest;" vertex="1" parent="31">
          <mxGeometry y="34.666666666666664" width="276" height="35" as="geometry" />
        </mxCell>
        <mxCell id="33" value="+mensaje: string" style="text;strokeColor=none;fillColor=none;align=left;verticalAlign=top;spacingLeft=4;spacingRight=4;overflow=hidden;rotatable=0;points=[[0,0.5],[1,0.5]];portConstraint=eastwest;" vertex="1" parent="31">
          <mxGeometry y="69.66666666666666" width="276" height="35" as="geometry" />
        </mxCell>
        <mxCell id="34" value="+fecha: date" style="text;strokeColor=none;fillColor=none;align=left;verticalAlign=top;spacingLeft=4;spacingRight=4;overflow=hidden;rotatable=0;points=[[0,0.5],[1,0.5]];portConstraint=eastwest;" vertex="1" parent="31">
          <mxGeometry y="104.66666666666666" width="276" height="35" as="geometry" />
        </mxCell>
        <mxCell id="35" style="line;strokeWidth=1;fillColor=none;align=left;verticalAlign=middle;spacingTop=-1;spacingLeft=3;spacingRight=3;rotatable=0;labelPosition=right;points=[];portConstraint=eastwest;strokeColor=inherit;" vertex="1" parent="31">
          <mxGeometry y="139.66666666666666" width="276" height="8" as="geometry" />
        </mxCell>
        <mxCell id="36" value="+ enviar()" style="text;strokeColor=none;fillColor=none;align=left;verticalAlign=top;spacingLeft=4;spacingRight=4;overflow=hidden;rotatable=0;points=[[0,0.5],[1,0.5]];portConstraint=eastwest;" vertex="1" parent="31">
          <mxGeometry y="147.66666666666666" width="276" height="35" as="geometry" />
        </mxCell>
        <mxCell id="Ca8EH3CPdM1UsYYd15Tk-40" style="edgeStyle=none;curved=1;rounded=0;orthogonalLoop=1;jettySize=auto;html=1;exitX=0;exitY=0.5;exitDx=0;exitDy=0;fontSize=12;startSize=8;endSize=8;" edge="1" parent="1" target="16">
          <mxGeometry relative="1" as="geometry">
            <mxPoint x="8" y="231.5" as="sourcePoint" />
          </mxGeometry>
        </mxCell>
        <mxCell id="Ca8EH3CPdM1UsYYd15Tk-49" value="Crea" style="edgeLabel;html=1;align=center;verticalAlign=middle;resizable=0;points=[];fontSize=12;" connectable="0" vertex="1" parent="Ca8EH3CPdM1UsYYd15Tk-40">
          <mxGeometry x="-0.2002" y="-1" relative="1" as="geometry">
            <mxPoint as="offset" />
          </mxGeometry>
        </mxCell>
        <mxCell id="Ca8EH3CPdM1UsYYd15Tk-42" style="edgeStyle=none;curved=1;rounded=0;orthogonalLoop=1;jettySize=auto;html=1;exitX=1;exitY=0.5;exitDx=0;exitDy=0;entryX=0.5;entryY=0;entryDx=0;entryDy=0;fontSize=12;startSize=8;endSize=8;" edge="1" parent="1" target="10">
          <mxGeometry relative="1" as="geometry">
            <mxPoint x="226" y="231.5" as="sourcePoint" />
          </mxGeometry>
        </mxCell>
        <mxCell id="Ca8EH3CPdM1UsYYd15Tk-50" value="Se autentica en" style="edgeLabel;html=1;align=center;verticalAlign=middle;resizable=0;points=[];fontSize=12;" connectable="0" vertex="1" parent="Ca8EH3CPdM1UsYYd15Tk-42">
          <mxGeometry x="-0.0827" y="3" relative="1" as="geometry">
            <mxPoint y="1" as="offset" />
          </mxGeometry>
        </mxCell>
        <mxCell id="Ca8EH3CPdM1UsYYd15Tk-43" style="edgeStyle=none;curved=1;rounded=0;orthogonalLoop=1;jettySize=auto;html=1;exitX=0.008;exitY=0.905;exitDx=0;exitDy=0;entryX=0;entryY=0;entryDx=0;entryDy=0;fontSize=12;startSize=8;endSize=8;exitPerimeter=0;" edge="1" parent="1" source="22" target="24">
          <mxGeometry relative="1" as="geometry">
            <Array as="points">
              <mxPoint x="-350" y="708" />
            </Array>
            <mxPoint x="-289" y="642.6428571428571" as="sourcePoint" />
          </mxGeometry>
        </mxCell>
        <mxCell id="Ca8EH3CPdM1UsYYd15Tk-48" value="Contiene" style="edgeLabel;html=1;align=center;verticalAlign=middle;resizable=0;points=[];fontSize=12;" connectable="0" vertex="1" parent="Ca8EH3CPdM1UsYYd15Tk-43">
          <mxGeometry x="0.0416" y="17" relative="1" as="geometry">
            <mxPoint y="1" as="offset" />
          </mxGeometry>
        </mxCell>
        <mxCell id="Ca8EH3CPdM1UsYYd15Tk-45" style="edgeStyle=none;curved=1;rounded=0;orthogonalLoop=1;jettySize=auto;html=1;exitX=1.008;exitY=0.996;exitDx=0;exitDy=0;entryX=0.5;entryY=0;entryDx=0;entryDy=0;fontSize=12;startSize=8;endSize=8;exitPerimeter=0;" edge="1" parent="1" source="22" target="31">
          <mxGeometry relative="1" as="geometry">
            <Array as="points">
              <mxPoint x="201" y="717" />
            </Array>
            <mxPoint x="92" y="642.6428571428571" as="sourcePoint" />
          </mxGeometry>
        </mxCell>
        <mxCell id="Ca8EH3CPdM1UsYYd15Tk-46" value="genera" style="edgeLabel;html=1;align=center;verticalAlign=middle;resizable=0;points=[];fontSize=12;" connectable="0" vertex="1" parent="Ca8EH3CPdM1UsYYd15Tk-45">
          <mxGeometry x="-0.0401" y="-19" relative="1" as="geometry">
            <mxPoint x="1" y="1" as="offset" />
          </mxGeometry>
        </mxCell>
      </root>
    </mxGraphModel>
  </diagram>
  <diagram id="VuQCdy9KX8AioSHYPLHf" name="Diagrama de Casos de Uso">
    <mxGraphModel grid="1" page="1" gridSize="10" guides="1" tooltips="1" connect="1" arrows="1" fold="1" pageScale="1" pageWidth="827" pageHeight="1169" math="0" shadow="0">
      <root>
        <mxCell id="0" />
        <mxCell id="1" parent="0" />
        <mxCell id="Egqog7lkRdfk1eNqB1sM-4" style="edgeStyle=orthogonalEdgeStyle;rounded=0;orthogonalLoop=1;jettySize=auto;html=1;exitX=0.5;exitY=1;exitDx=0;exitDy=0;" edge="1" parent="1" source="Egqog7lkRdfk1eNqB1sM-1" target="Egqog7lkRdfk1eNqB1sM-3">
          <mxGeometry relative="1" as="geometry" />
        </mxCell>
        <mxCell id="Egqog7lkRdfk1eNqB1sM-12" style="edgeStyle=orthogonalEdgeStyle;rounded=0;orthogonalLoop=1;jettySize=auto;html=1;exitX=0;exitY=1;exitDx=0;exitDy=0;" edge="1" parent="1" source="Egqog7lkRdfk1eNqB1sM-1">
          <mxGeometry relative="1" as="geometry">
            <mxPoint x="200" y="340" as="targetPoint" />
          </mxGeometry>
        </mxCell>
        <mxCell id="Egqog7lkRdfk1eNqB1sM-18" style="edgeStyle=orthogonalEdgeStyle;rounded=0;orthogonalLoop=1;jettySize=auto;html=1;exitX=1;exitY=1;exitDx=0;exitDy=0;entryX=0.5;entryY=0;entryDx=0;entryDy=0;" edge="1" parent="1" source="Egqog7lkRdfk1eNqB1sM-1" target="Egqog7lkRdfk1eNqB1sM-17">
          <mxGeometry relative="1" as="geometry" />
        </mxCell>
        <mxCell id="Egqog7lkRdfk1eNqB1sM-19" style="edgeStyle=orthogonalEdgeStyle;rounded=0;orthogonalLoop=1;jettySize=auto;html=1;exitX=0;exitY=1;exitDx=0;exitDy=0;" edge="1" parent="1" source="Egqog7lkRdfk1eNqB1sM-1">
          <mxGeometry relative="1" as="geometry">
            <mxPoint x="20" y="340" as="targetPoint" />
          </mxGeometry>
        </mxCell>
        <mxCell id="Egqog7lkRdfk1eNqB1sM-1" value="Usuario" style="ellipse;whiteSpace=wrap;html=1;" vertex="1" parent="1">
          <mxGeometry x="340" y="140" width="120" height="80" as="geometry" />
        </mxCell>
        <mxCell id="Egqog7lkRdfk1eNqB1sM-3" value="Iniciar sesiÃ³n" style="ellipse;whiteSpace=wrap;html=1;" vertex="1" parent="1">
          <mxGeometry x="340" y="340" width="120" height="80" as="geometry" />
        </mxCell>
        <mxCell id="Egqog7lkRdfk1eNqB1sM-8" value="" style="endArrow=none;dashed=1;html=1;dashPattern=1 3;strokeWidth=2;rounded=0;entryX=0.5;entryY=1;entryDx=0;entryDy=0;exitX=0.5;exitY=0;exitDx=0;exitDy=0;" edge="1" parent="1" target="Egqog7lkRdfk1eNqB1sM-3">
          <mxGeometry width="50" height="50" relative="1" as="geometry">
            <mxPoint x="400" y="545" as="sourcePoint" />
            <mxPoint x="430" y="450" as="targetPoint" />
          </mxGeometry>
        </mxCell>
        <mxCell id="Egqog7lkRdfk1eNqB1sM-21" value="&amp;lt;&amp;lt;include&amp;gt;&amp;gt;" style="edgeLabel;html=1;align=center;verticalAlign=middle;resizable=0;points=[];" connectable="0" vertex="1" parent="Egqog7lkRdfk1eNqB1sM-8">
          <mxGeometry x="0.184" relative="1" as="geometry">
            <mxPoint as="offset" />
          </mxGeometry>
        </mxCell>
        <mxCell id="Egqog7lkRdfk1eNqB1sM-10" value="Registrarse" style="ellipse;whiteSpace=wrap;html=1;" vertex="1" parent="1">
          <mxGeometry x="340" y="545" width="120" height="80" as="geometry" />
        </mxCell>
        <mxCell id="Egqog7lkRdfk1eNqB1sM-13" value="Realizar pedido" style="ellipse;whiteSpace=wrap;html=1;" vertex="1" parent="1">
          <mxGeometry x="140" y="340" width="120" height="80" as="geometry" />
        </mxCell>
        <mxCell id="Egqog7lkRdfk1eNqB1sM-14" value="" style="endArrow=none;dashed=1;html=1;dashPattern=1 3;strokeWidth=2;rounded=0;" edge="1" parent="1">
          <mxGeometry width="50" height="50" relative="1" as="geometry">
            <mxPoint x="200" y="540" as="sourcePoint" />
            <mxPoint x="200" y="420" as="targetPoint" />
          </mxGeometry>
        </mxCell>
        <mxCell id="Egqog7lkRdfk1eNqB1sM-22" value="&amp;lt;&amp;lt;include&amp;gt;&amp;gt;" style="edgeLabel;html=1;align=center;verticalAlign=middle;resizable=0;points=[];" connectable="0" vertex="1" parent="Egqog7lkRdfk1eNqB1sM-14">
          <mxGeometry x="-0.0167" y="2" relative="1" as="geometry">
            <mxPoint as="offset" />
          </mxGeometry>
        </mxCell>
        <mxCell id="Egqog7lkRdfk1eNqB1sM-15" value="Consultar productos" style="ellipse;whiteSpace=wrap;html=1;" vertex="1" parent="1">
          <mxGeometry x="140" y="545" width="120" height="80" as="geometry" />
        </mxCell>
        <mxCell id="Egqog7lkRdfk1eNqB1sM-17" value="Cerrar sesiÃ³n" style="ellipse;whiteSpace=wrap;html=1;" vertex="1" parent="1">
          <mxGeometry x="560" y="340" width="120" height="80" as="geometry" />
        </mxCell>
        <mxCell id="Egqog7lkRdfk1eNqB1sM-20" value="Recibir notificaciones" style="ellipse;whiteSpace=wrap;html=1;" vertex="1" parent="1">
          <mxGeometry x="-40" y="340" width="120" height="80" as="geometry" />
        </mxCell>
      </root>
    </mxGraphModel>
  </diagram>
  <diagram id="eBa0pvz3bz86IUbiucC9" name="Diagrama de secuencia">
    <mxGraphModel grid="1" page="1" gridSize="10" guides="1" tooltips="1" connect="1" arrows="1" fold="1" pageScale="1" pageWidth="827" pageHeight="1169" math="0" shadow="0">
      <root>
        <mxCell id="0" />
        <mxCell id="1" parent="0" />
        <mxCell id="v1a2x3JONbSTrH77nJRy-1" value="Usuario" style="shape=umlLifeline;perimeter=lifelinePerimeter;whiteSpace=wrap;container=1;dropTarget=0;collapsible=0;recursiveResize=0;outlineConnect=0;portConstraint=eastwest;newEdgeStyle={&quot;edgeStyle&quot;:&quot;elbowEdgeStyle&quot;,&quot;elbow&quot;:&quot;vertical&quot;,&quot;curved&quot;:0,&quot;rounded&quot;:0};size=65;" vertex="1" parent="1">
          <mxGeometry x="20" y="20" width="150" height="628" as="geometry" />
        </mxCell>
        <mxCell id="v1a2x3JONbSTrH77nJRy-2" value="SistemaAuth" style="shape=umlLifeline;perimeter=lifelinePerimeter;whiteSpace=wrap;container=1;dropTarget=0;collapsible=0;recursiveResize=0;outlineConnect=0;portConstraint=eastwest;newEdgeStyle={&quot;edgeStyle&quot;:&quot;elbowEdgeStyle&quot;,&quot;elbow&quot;:&quot;vertical&quot;,&quot;curved&quot;:0,&quot;rounded&quot;:0};size=65;" vertex="1" parent="1">
          <mxGeometry x="220" y="20" width="150" height="628" as="geometry" />
        </mxCell>
        <mxCell id="v1a2x3JONbSTrH77nJRy-3" value="Pedido" style="shape=umlLifeline;perimeter=lifelinePerimeter;whiteSpace=wrap;container=1;dropTarget=0;collapsible=0;recursiveResize=0;outlineConnect=0;portConstraint=eastwest;newEdgeStyle={&quot;edgeStyle&quot;:&quot;elbowEdgeStyle&quot;,&quot;elbow&quot;:&quot;vertical&quot;,&quot;curved&quot;:0,&quot;rounded&quot;:0};size=65;" vertex="1" parent="1">
          <mxGeometry x="420" y="20" width="150" height="628" as="geometry" />
        </mxCell>
        <mxCell id="v1a2x3JONbSTrH77nJRy-4" value="Producto" style="shape=umlLifeline;perimeter=lifelinePerimeter;whiteSpace=wrap;container=1;dropTarget=0;collapsible=0;recursiveResize=0;outlineConnect=0;portConstraint=eastwest;newEdgeStyle={&quot;edgeStyle&quot;:&quot;elbowEdgeStyle&quot;,&quot;elbow&quot;:&quot;vertical&quot;,&quot;curved&quot;:0,&quot;rounded&quot;:0};size=65;" vertex="1" parent="1">
          <mxGeometry x="620" y="20" width="150" height="628" as="geometry" />
        </mxCell>
        <mxCell id="v1a2x3JONbSTrH77nJRy-5" value="NotificaciÃ³n" style="shape=umlLifeline;perimeter=lifelinePerimeter;whiteSpace=wrap;container=1;dropTarget=0;collapsible=0;recursiveResize=0;outlineConnect=0;portConstraint=eastwest;newEdgeStyle={&quot;edgeStyle&quot;:&quot;elbowEdgeStyle&quot;,&quot;elbow&quot;:&quot;vertical&quot;,&quot;curved&quot;:0,&quot;rounded&quot;:0};size=65;" vertex="1" parent="1">
          <mxGeometry x="820" y="20" width="150" height="628" as="geometry" />
        </mxCell>
        <mxCell id="v1a2x3JONbSTrH77nJRy-6" value="iniciarSesion()" style="verticalAlign=bottom;edgeStyle=elbowEdgeStyle;elbow=vertical;curved=0;rounded=0;endArrow=block;" edge="1" parent="1" source="v1a2x3JONbSTrH77nJRy-1" target="v1a2x3JONbSTrH77nJRy-2">
          <mxGeometry relative="1" as="geometry">
            <Array as="points">
              <mxPoint x="204" y="127" />
            </Array>
          </mxGeometry>
        </mxCell>
        <mxCell id="v1a2x3JONbSTrH77nJRy-7" value="sesionOK()" style="verticalAlign=bottom;edgeStyle=elbowEdgeStyle;elbow=vertical;curved=0;rounded=0;dashed=1;dashPattern=2 3;endArrow=block;" edge="1" parent="1" source="v1a2x3JONbSTrH77nJRy-2" target="v1a2x3JONbSTrH77nJRy-1">
          <mxGeometry relative="1" as="geometry">
            <Array as="points">
              <mxPoint x="207" y="179" />
            </Array>
          </mxGeometry>
        </mxCell>
        <mxCell id="v1a2x3JONbSTrH77nJRy-8" value="crearPedido()" style="verticalAlign=bottom;edgeStyle=elbowEdgeStyle;elbow=vertical;curved=0;rounded=0;endArrow=block;" edge="1" parent="1" source="v1a2x3JONbSTrH77nJRy-1" target="v1a2x3JONbSTrH77nJRy-3">
          <mxGeometry relative="1" as="geometry">
            <Array as="points">
              <mxPoint x="304" y="231" />
            </Array>
          </mxGeometry>
        </mxCell>
        <mxCell id="v1a2x3JONbSTrH77nJRy-9" value="agregaProducto()" style="verticalAlign=bottom;edgeStyle=elbowEdgeStyle;elbow=vertical;curved=0;rounded=0;endArrow=block;" edge="1" parent="1" source="v1a2x3JONbSTrH77nJRy-3" target="v1a2x3JONbSTrH77nJRy-4">
          <mxGeometry relative="1" as="geometry">
            <Array as="points">
              <mxPoint x="604" y="283" />
            </Array>
          </mxGeometry>
        </mxCell>
        <mxCell id="v1a2x3JONbSTrH77nJRy-10" value="precio" style="verticalAlign=bottom;edgeStyle=elbowEdgeStyle;elbow=vertical;curved=0;rounded=0;dashed=1;dashPattern=2 3;endArrow=block;" edge="1" parent="1" source="v1a2x3JONbSTrH77nJRy-4" target="v1a2x3JONbSTrH77nJRy-3">
          <mxGeometry relative="1" as="geometry">
            <Array as="points">
              <mxPoint x="607" y="335" />
            </Array>
          </mxGeometry>
        </mxCell>
        <mxCell id="v1a2x3JONbSTrH77nJRy-11" value="total()" style="verticalAlign=bottom;edgeStyle=elbowEdgeStyle;elbow=vertical;curved=0;rounded=0;endArrow=block;" edge="1" parent="1" source="v1a2x3JONbSTrH77nJRy-3" target="v1a2x3JONbSTrH77nJRy-4">
          <mxGeometry relative="1" as="geometry">
            <Array as="points">
              <mxPoint x="604" y="387" />
            </Array>
          </mxGeometry>
        </mxCell>
        <mxCell id="v1a2x3JONbSTrH77nJRy-12" value="confirmaciÃ³n" style="verticalAlign=bottom;edgeStyle=elbowEdgeStyle;elbow=vertical;curved=0;rounded=0;dashed=1;dashPattern=2 3;endArrow=block;" edge="1" parent="1" source="v1a2x3JONbSTrH77nJRy-3" target="v1a2x3JONbSTrH77nJRy-1">
          <mxGeometry relative="1" as="geometry">
            <Array as="points">
              <mxPoint x="307" y="439" />
            </Array>
          </mxGeometry>
        </mxCell>
        <mxCell id="v1a2x3JONbSTrH77nJRy-13" value="recibirNotificaciÃ³n()" style="verticalAlign=bottom;edgeStyle=elbowEdgeStyle;elbow=vertical;curved=0;rounded=0;endArrow=block;" edge="1" parent="1" source="v1a2x3JONbSTrH77nJRy-1" target="v1a2x3JONbSTrH77nJRy-5">
          <mxGeometry relative="1" as="geometry">
            <Array as="points">
              <mxPoint x="504" y="491" />
            </Array>
          </mxGeometry>
        </mxCell>
        <mxCell id="v1a2x3JONbSTrH77nJRy-14" value="notificaciÃ³nOK()" style="verticalAlign=bottom;edgeStyle=elbowEdgeStyle;elbow=vertical;curved=0;rounded=0;dashed=1;dashPattern=2 3;endArrow=block;" edge="1" parent="1" source="v1a2x3JONbSTrH77nJRy-5" target="v1a2x3JONbSTrH77nJRy-1">
          <mxGeometry relative="1" as="geometry">
            <Array as="points">
              <mxPoint x="507" y="543" />
            </Array>
          </mxGeometry>
        </mxCell>
      </root>
    </mxGraphModel>
  </diagram>
  <diagram id="X-2yXoN6cm5-92gZ22Gc" name="Diagrama de Estados">
    <mxGraphModel grid="1" page="1" gridSize="10" guides="1" tooltips="1" connect="1" arrows="1" fold="1" pageScale="1" pageWidth="827" pageHeight="1169" math="0" shadow="0">
      <root>
        <mxCell id="0" />
        <mxCell id="1" parent="0" />
        <mxCell id="f8rmcJ_9vKAspCSSurKo-1" value="Creado" style="rounded=0;whiteSpace=wrap;html=1;" vertex="1" parent="1">
          <mxGeometry x="380" y="240" width="120" height="60" as="geometry" />
        </mxCell>
        <mxCell id="f8rmcJ_9vKAspCSSurKo-2" value="" style="endArrow=none;dashed=1;html=1;dashPattern=1 3;strokeWidth=2;rounded=0;exitX=0.5;exitY=0;exitDx=0;exitDy=0;" edge="1" parent="1" source="f8rmcJ_9vKAspCSSurKo-3">
          <mxGeometry width="50" height="50" relative="1" as="geometry">
            <mxPoint x="440" y="390" as="sourcePoint" />
            <mxPoint x="440" y="300" as="targetPoint" />
          </mxGeometry>
        </mxCell>
        <mxCell id="f8rmcJ_9vKAspCSSurKo-5" value="Agregar producto" style="edgeLabel;html=1;align=center;verticalAlign=middle;resizable=0;points=[];" connectable="0" vertex="1" parent="f8rmcJ_9vKAspCSSurKo-2">
          <mxGeometry x="0.2" relative="1" as="geometry">
            <mxPoint as="offset" />
          </mxGeometry>
        </mxCell>
        <mxCell id="f8rmcJ_9vKAspCSSurKo-3" value="En Proceso" style="rounded=0;whiteSpace=wrap;html=1;" vertex="1" parent="1">
          <mxGeometry x="380" y="400" width="120" height="60" as="geometry" />
        </mxCell>
        <mxCell id="f8rmcJ_9vKAspCSSurKo-6" value="" style="endArrow=none;dashed=1;html=1;dashPattern=1 3;strokeWidth=2;rounded=0;" edge="1" parent="1">
          <mxGeometry width="50" height="50" relative="1" as="geometry">
            <mxPoint x="440" y="560" as="sourcePoint" />
            <mxPoint x="440" y="460" as="targetPoint" />
          </mxGeometry>
        </mxCell>
        <mxCell id="f8rmcJ_9vKAspCSSurKo-11" value="Confirmar pedido" style="edgeLabel;html=1;align=center;verticalAlign=middle;resizable=0;points=[];" connectable="0" vertex="1" parent="f8rmcJ_9vKAspCSSurKo-6">
          <mxGeometry x="0.2" y="-2" relative="1" as="geometry">
            <mxPoint as="offset" />
          </mxGeometry>
        </mxCell>
        <mxCell id="f8rmcJ_9vKAspCSSurKo-7" value="Confirmado" style="rounded=0;whiteSpace=wrap;html=1;" vertex="1" parent="1">
          <mxGeometry x="380" y="560" width="120" height="60" as="geometry" />
        </mxCell>
        <mxCell id="f8rmcJ_9vKAspCSSurKo-8" value="" style="endArrow=none;dashed=1;html=1;dashPattern=1 3;strokeWidth=2;rounded=0;" edge="1" parent="1">
          <mxGeometry width="50" height="50" relative="1" as="geometry">
            <mxPoint x="440" y="720" as="sourcePoint" />
            <mxPoint x="440" y="620" as="targetPoint" />
          </mxGeometry>
        </mxCell>
        <mxCell id="f8rmcJ_9vKAspCSSurKo-10" value="Enviar notificiaciÃ³n" style="edgeLabel;html=1;align=center;verticalAlign=middle;resizable=0;points=[];" connectable="0" vertex="1" parent="f8rmcJ_9vKAspCSSurKo-8">
          <mxGeometry x="0.12" y="4" relative="1" as="geometry">
            <mxPoint as="offset" />
          </mxGeometry>
        </mxCell>
        <mxCell id="f8rmcJ_9vKAspCSSurKo-9" value="Notificado" style="rounded=0;whiteSpace=wrap;html=1;" vertex="1" parent="1">
          <mxGeometry x="380" y="720" width="120" height="60" as="geometry" />
        </mxCell>
      </root>
    </mxGraphModel>
  </diagram>
</mxfile>
